<svg width="390" height="390" viewBox="0 0 390 390" fill="none" xmlns="http://www.w3.org/2000/svg">
<circle cx="195" cy="195" r="195" fill="#F6DDFF"/>
<path d="M113.8 265C104.733 265 98.0667 262.467 93.8 257.4C89.5333 252.2 87.4 244.467 87.4 234.2V138H99.4V163.4H130.8V174.2H99.4V234.2C99.4 247.533 104.2 254.2 113.8 254.2C121.4 254.2 127.267 250.133 131.4 242L140.4 248.2C137.333 253.8 133.667 258 129.4 260.8C125.133 263.6 119.933 265 113.8 265ZM313.689 256C312.622 258.267 310.756 260.2 308.089 261.8C305.422 263.267 302.422 264 299.089 264C293.756 264 289.356 262.333 285.889 259C282.422 255.667 280.689 251.333 280.689 246V193C280.289 185.8 278.489 180.533 275.289 177.2C272.089 173.733 267.422 172 261.289 172C249.289 172 239.822 178.6 232.889 191.8V263H220.889V195.8C220.889 188.333 219.289 182.533 216.089 178.4C212.889 174.133 208.089 172 201.689 172C195.556 172 189.822 173.867 184.489 177.6C179.289 181.333 175.556 185.933 173.289 191.4V263H161.289V193C161.289 182.467 158.489 174.733 152.889 169.8L160.889 161.8C163.156 163.4 165.356 165.6 167.489 168.4C169.622 171.2 171.222 174.333 172.289 177.8C175.889 172.467 180.222 168.4 185.289 165.6C190.489 162.667 196.289 161.2 202.689 161.2C209.222 161.2 214.822 162.733 219.489 165.8C224.289 168.867 227.889 173.4 230.289 179.4C234.022 173.533 238.489 169.067 243.689 166C249.022 162.8 254.956 161.2 261.489 161.2C270.956 161.2 278.489 164.133 284.089 170C289.822 175.733 292.689 183.333 292.689 192.8V246.2C292.689 248.067 293.289 249.667 294.489 251C295.822 252.2 297.356 252.8 299.089 252.8C301.756 252.8 303.689 251.667 304.889 249.4L313.689 256Z" fill="#212427"/>
</svg>
